<svg width="53" height="49" viewBox="0 0 53 49" fill="none" xmlns="http://www.w3.org/2000/svg">
<path d="M26.4715 1.0372C26.3486 0.951921 26.1497 0.943779 26.0272 1.02949L19.9788 5.29296C19.8563 5.3791 19.7911 5.32296 19.7911 5.1734V2.22038C19.7911 2.07082 19.6013 1.99154 19.4513 1.99154H15.5221C15.3725 1.99154 15.3117 2.07082 15.3117 2.22038V8.3107C15.3117 8.46026 15.1823 8.65138 15.0593 8.73709L0.223445 19.1714C0.100885 19.2576 0.107741 19.3621 0.2573 19.3621H6.85114C7.0007 19.3621 7.11855 19.4131 7.11855 19.5627V48.6931C7.11921 48.7659 7.14833 48.8355 7.19966 48.8871C7.251 48.9386 7.32048 48.9681 7.39324 48.9691H45.0596C45.2092 48.9691 45.3561 48.8431 45.3561 48.6931V19.5627C45.3561 19.4131 45.4517 19.3621 45.6017 19.3621H52.5118C52.6618 19.3621 52.6832 19.2576 52.5602 19.1723L26.4715 1.0372ZM36.6124 17.9917C37.1558 17.9917 37.6771 18.2076 38.0614 18.5919C38.4457 18.9762 38.6616 19.4974 38.6616 20.0409C38.6616 20.5844 38.4457 21.1057 38.0614 21.49C37.6771 21.8743 37.1558 22.0902 36.6124 22.0902C36.0689 22.0902 35.5476 21.8743 35.1633 21.49C34.779 21.1057 34.5631 20.5844 34.5631 20.0409C34.5631 19.4974 34.779 18.9762 35.1633 18.5919C35.5476 18.2076 36.0689 17.9917 36.6124 17.9917ZM26.9288 30.1076C27.3237 30.1076 27.7025 30.2645 27.9818 30.5438C28.261 30.8231 28.4179 31.2018 28.4179 31.5968C28.4179 31.9917 28.261 32.3705 27.9818 32.6498C27.7025 32.929 27.3237 33.0859 26.9288 33.0859C26.5338 33.0859 26.1551 32.929 25.8758 32.6498C25.5965 32.3705 25.4396 31.9917 25.4396 31.5968C25.4396 31.2018 25.5965 30.8231 25.8758 30.5438C26.1551 30.2645 26.5338 30.1076 26.9288 30.1076ZM17.0121 17.9878C17.5556 17.9878 18.0768 18.2037 18.4611 18.588C18.8454 18.9724 19.0613 19.4936 19.0613 20.0371C19.0613 20.5806 18.8454 21.1018 18.4611 21.4861C18.0768 21.8704 17.5556 22.0863 17.0121 22.0863C16.4686 22.0863 15.9474 21.8704 15.5631 21.4861C15.1788 21.1018 14.9628 20.5806 14.9628 20.0371C14.9628 19.4936 15.1788 18.9724 15.5631 18.588C15.9474 18.2037 16.4686 17.9878 17.0121 17.9878ZM41.1098 33.781C40.8267 33.781 40.5552 33.6686 40.355 33.4685C40.1547 33.2684 40.0421 32.997 40.0419 32.714L40.0406 26.1925C40.0405 26.1631 40.0288 26.135 40.008 26.1142C39.9872 26.0934 39.959 26.0817 39.9296 26.0815H39.7034C39.674 26.0817 39.6458 26.0934 39.625 26.1142C39.6042 26.135 39.5925 26.1631 39.5924 26.1925V44.4896C39.5924 44.8549 39.4473 45.2052 39.189 45.4635C38.9307 45.7218 38.5804 45.8669 38.2151 45.8669C37.8498 45.8669 37.4995 45.7218 37.2412 45.4635C36.9829 45.2052 36.8378 44.8549 36.8378 44.4896V33.7236C36.8378 33.6452 36.8013 33.6122 36.7238 33.6122H36.5018C36.4242 33.6122 36.3878 33.6447 36.3878 33.7236V44.4896C36.3878 44.8549 36.2427 45.2052 35.9844 45.4635C35.7261 45.7218 35.3758 45.8669 35.0105 45.8669C34.6452 45.8669 34.2949 45.7218 34.0366 45.4635C33.7783 45.2052 33.6332 44.8549 33.6332 44.4896V26.1925C33.6331 26.1631 33.6213 26.135 33.6006 26.1142C33.5798 26.0934 33.5516 26.0817 33.5222 26.0815H33.2959C33.2665 26.0817 33.2384 26.0934 33.2176 26.1142C33.1968 26.135 33.1851 26.1631 33.1849 26.1925L32.3086 31.4922C32.2769 31.6122 32.2357 31.6898 32.1865 31.778C31.9525 32.1959 29.7618 36.4726 29.7618 36.4726C29.7318 36.5262 29.7078 36.6809 29.7078 36.6809C29.7078 36.6809 29.7035 44.6023 29.6971 44.6636C29.6273 45.2893 29.0607 45.8674 28.3708 45.8674C27.6406 45.8674 27.1101 45.2588 27.0993 44.5925L27.0981 41.2165C27.0979 41.1871 27.0862 41.1589 27.0654 41.1381C27.0446 41.1173 27.0165 41.1056 26.9871 41.1055H26.8204C26.791 41.1056 26.7628 41.1173 26.742 41.1381C26.7212 41.1589 26.7095 41.1871 26.7094 41.2165L26.7089 44.5749C26.6982 45.2413 26.04 45.8674 25.3098 45.8674C24.5796 45.8674 23.9993 45.2378 23.9886 44.5715V36.5502C23.9886 36.4889 23.9638 36.3959 23.9329 36.3428L21.519 31.811C21.4404 31.673 21.3827 31.5241 21.3476 31.3692C21.3433 31.3576 19.7389 26.1317 19.7389 26.1317C19.7294 26.1098 19.6819 26.0181 19.5704 26.0181H19.345C19.2816 26.0173 19.2443 26.0713 19.261 26.1321L22.4558 36.587C22.4729 36.6479 22.4558 36.7546 22.3443 36.7546H20.1031C20.0397 36.7546 19.9934 36.806 19.9934 36.8694L19.9938 44.4892C19.9938 44.8545 19.8487 45.2048 19.5904 45.4631C19.3321 45.7214 18.9818 45.8665 18.6165 45.8665C18.2512 45.8665 17.9009 45.7214 17.6426 45.4631C17.3843 45.2048 17.2392 44.8545 17.2392 44.4892L17.2388 36.8694C17.2388 36.839 17.2267 36.8098 17.2052 36.7882C17.1836 36.7667 17.1544 36.7546 17.1239 36.7546H16.9002C16.8698 36.7546 16.8406 36.7667 16.819 36.7882C16.7975 36.8098 16.7854 36.839 16.7854 36.8694L16.785 44.4892C16.785 44.8545 16.6399 45.2048 16.3816 45.4631C16.1233 45.7214 15.773 45.8665 15.4077 45.8665C15.0424 45.8665 14.6921 45.7214 14.4338 45.4631C14.1755 45.2048 14.0304 44.8545 14.0304 44.4892L14.0308 36.8694C14.0308 36.806 13.9845 36.7546 13.9211 36.7546H11.6799C11.5684 36.7546 11.5513 36.6479 11.5684 36.587L14.7632 26.1321C14.7799 26.0713 14.743 26.0168 14.6792 26.0181H14.6787H14.4538C14.4177 26.0185 14.3825 26.0295 14.3525 26.0497C14.3226 26.0699 14.2992 26.0984 14.2853 26.1317L12.6891 31.3349C12.6003 31.5989 12.4121 31.8177 12.1644 31.9449C11.9168 32.0721 11.6292 32.0976 11.363 32.0159C11.0968 31.9342 10.8731 31.7519 10.7393 31.5077C10.6056 31.2634 10.5725 30.9767 10.6471 30.7084L12.2472 25.4825C12.4915 24.6344 13.0854 22.7034 14.764 22.7034H19.2662C21.0673 22.7034 21.5331 24.6344 21.777 25.4825C21.777 25.4825 23.3938 30.7693 23.4002 30.8001C23.6651 31.2642 24.7887 33.5873 24.7887 33.5873C24.8069 33.6153 24.8314 33.6387 24.8603 33.6554C24.8892 33.6722 24.9216 33.6819 24.955 33.6837H28.6965C28.8276 33.6837 28.8979 33.6417 28.96 33.5346L30.2653 30.8271C30.4535 29.5154 31.0478 25.3668 31.0478 25.293C31.0478 23.8313 32.1719 22.7073 33.5775 22.7073H39.6485C41.0537 22.7073 42.1781 23.8313 42.1786 25.293L42.179 32.7131C42.1784 32.9964 42.0656 33.2679 41.8651 33.4681C41.6647 33.6682 41.3931 33.7808 41.1098 33.781Z" fill="#F5F5F5"/>
</svg>
