<svg id="Layer_1" data-name="Layer 1" xmlns="http://www.w3.org/2000/svg" viewBox="0 0 30.62 29.27"><defs><style>.cls-1{fill:#4ba8de;}</style></defs><path class="cls-1" d="M2.36,10.2H8.92V29.94H2.36ZM5.68.68A3.42,3.42,0,1,0,5.6,7.5h0a3.42,3.42,0,1,0,0-6.82ZM25,9.73A6.52,6.52,0,0,0,19.12,13V10.2H12.55c.09,1.85,0,19.74,0,19.74h6.57v-11a4.66,4.66,0,0,1,.21-1.61,3.6,3.6,0,0,1,3.37-2.4c2.38,0,3.33,1.81,3.33,4.47V29.94h6.56V18.62C32.59,12.55,29.35,9.73,25,9.73Z" transform="translate(-1.97 -0.68)"/></svg>