<svg id="Layer_1" data-name="Layer 1" xmlns="http://www.w3.org/2000/svg" viewBox="0 0 25.13 25.13"><defs><style>.cls-1{fill:#434343;}</style></defs><path class="cls-1" d="M4.92,2.07h6.29V8.36H4.92Z" transform="translate(-4.92 -2.07)"/><path class="cls-1" d="M4.92,11.5h6.29v6.28H4.92Z" transform="translate(-4.92 -2.07)"/><path class="cls-1" d="M11.21,20.92H4.92v6.29h6.29Z" transform="translate(-4.92 -2.07)"/><path class="cls-1" d="M14.35,2.07h6.28V8.36H14.35Z" transform="translate(-4.92 -2.07)"/><path class="cls-1" d="M20.63,11.5H14.35v6.28h6.28Z" transform="translate(-4.92 -2.07)"/><path class="cls-1" d="M14.35,20.92h6.28v6.29H14.35Z" transform="translate(-4.92 -2.07)"/><path class="cls-1" d="M30.06,2.07H23.77V8.36h6.29Z" transform="translate(-4.92 -2.07)"/><path class="cls-1" d="M23.77,11.5h6.29v6.28H23.77Z" transform="translate(-4.92 -2.07)"/><path class="cls-1" d="M30.06,20.92H23.77v6.29h6.29Z" transform="translate(-4.92 -2.07)"/></svg>