<svg id="Layer_1" data-name="Layer 1" xmlns="http://www.w3.org/2000/svg" viewBox="0 0 34.98 29.28"><defs><style>.cls-1{fill:#4ba8de;}</style></defs><path class="cls-1" d="M35.45,4.2A.52.52,0,0,0,35,4.09a14.52,14.52,0,0,1-2.43.83,7.42,7.42,0,0,0,2-3.22.43.43,0,0,0-.11-.42.36.36,0,0,0-.42,0,13.44,13.44,0,0,1-4.14,1.67A7.2,7.2,0,0,0,24.62.67h0a7.37,7.37,0,0,0-5.81,2.89,7.71,7.71,0,0,0-1.52,5.92A19.35,19.35,0,0,1,3.62,2.15.37.37,0,0,0,3.28,2a.39.39,0,0,0-.3.19A8.42,8.42,0,0,0,2,6a7.67,7.67,0,0,0,2.24,5.43,7.68,7.68,0,0,1-1.75-.69.37.37,0,0,0-.38,0,.41.41,0,0,0-.19.34v.08A7.58,7.58,0,0,0,6.36,18.1,10.42,10.42,0,0,1,4.88,18a.41.41,0,0,0-.35.11.46.46,0,0,0-.07.38,7.5,7.5,0,0,0,5.88,5.17A13.52,13.52,0,0,1,2.67,26,12.16,12.16,0,0,1,1,25.92a.39.39,0,0,0-.42.27.39.39,0,0,0,.16.46A19.88,19.88,0,0,0,11.67,30h0C24.43,30,32,19.35,32,9.1V8.34a15.15,15.15,0,0,0,3.42-3.68A.36.36,0,0,0,35.45,4.2Z" transform="translate(-0.55 -0.67)"/></svg>